<svg xmlns="http://www.w3.org/2000/svg" xmlns:xlink="http://www.w3.org/1999/xlink" width="500" zoomAndPan="magnify" viewBox="0 0 375 374.999991" height="500" preserveAspectRatio="xMidYMid meet" version="1.0"><defs><g/><clipPath id="a227cdf248"><path d="M 86.976562 172.328125 L 272.703125 172.328125 L 272.703125 202.378906 L 86.976562 202.378906 Z M 86.976562 172.328125 " clip-rule="nonzero"/></clipPath></defs><g fill="#e66c6c" fill-opacity="1"><g transform="translate(190.64793, 242.722733)"><g><path d="M 77.140625 -116.140625 L 72.1875 -109.8125 C 70.132812 -110.945312 68.191406 -111.972656 66.359375 -112.890625 C 64.535156 -113.804688 62.679688 -114.546875 60.796875 -115.109375 C 58.921875 -115.679688 56.925781 -116.109375 54.8125 -116.390625 C 52.707031 -116.679688 50.285156 -116.828125 47.546875 -116.828125 C 41.960938 -116.828125 36.972656 -115.914062 32.578125 -114.09375 C 28.191406 -112.269531 24.457031 -109.816406 21.375 -106.734375 C 18.300781 -103.648438 15.960938 -100.113281 14.359375 -96.125 C 12.765625 -92.132812 11.96875 -87.914062 11.96875 -83.46875 C 11.96875 -77.425781 13.820312 -71.894531 17.53125 -66.875 C 21.238281 -61.863281 27.023438 -58.046875 34.890625 -55.421875 C 38.648438 -54.160156 41.84375 -53.128906 44.46875 -52.328125 C 47.09375 -51.535156 49.546875 -50.769531 51.828125 -50.03125 C 54.109375 -49.289062 56.414062 -48.492188 58.75 -47.640625 C 61.09375 -46.785156 63.800781 -45.613281 66.875 -44.125 C 70.75 -42.300781 73.367188 -39.765625 74.734375 -36.515625 C 76.109375 -33.265625 76.796875 -29.988281 76.796875 -26.6875 C 76.796875 -22.582031 76 -18.847656 74.40625 -15.484375 C 72.8125 -12.117188 70.703125 -9.296875 68.078125 -7.015625 C 65.453125 -4.734375 62.425781 -2.960938 59 -1.703125 C 55.582031 -0.453125 52.109375 0.171875 48.578125 0.171875 C 44.472656 0.171875 40.535156 -0.539062 36.765625 -1.96875 C 33.003906 -3.394531 29.523438 -5.414062 26.328125 -8.03125 C 23.140625 -10.65625 20.375 -13.90625 18.03125 -17.78125 C 15.695312 -21.664062 13.90625 -26 12.65625 -30.78125 C 12.3125 -32.269531 11.6875 -33.015625 10.78125 -33.015625 C 9.976562 -33.015625 9.578125 -32.21875 9.578125 -30.625 L 9.578125 0 C 9.578125 1.476562 10.09375 2.21875 11.125 2.21875 C 11.800781 2.21875 12.539062 1.648438 13.34375 0.515625 L 19.5 -8.375 C 20.863281 -7.125 22.539062 -5.8125 24.53125 -4.4375 C 26.53125 -3.070312 28.753906 -1.816406 31.203125 -0.671875 C 33.660156 0.460938 36.285156 1.398438 39.078125 2.140625 C 41.878906 2.878906 44.757812 3.25 47.71875 3.25 C 53.195312 3.25 58.269531 2.25 62.9375 0.25 C 67.613281 -1.738281 71.660156 -4.5 75.078125 -8.03125 C 78.503906 -11.570312 81.210938 -15.765625 83.203125 -20.609375 C 85.203125 -25.453125 86.203125 -30.671875 86.203125 -36.265625 C 86.203125 -43.898438 84.40625 -50.367188 80.8125 -55.671875 C 77.226562 -60.972656 71.554688 -64.765625 63.796875 -67.046875 C 61.171875 -67.847656 58.71875 -68.53125 56.4375 -69.09375 C 54.164062 -69.664062 51.832031 -70.296875 49.4375 -70.984375 C 47.039062 -71.671875 44.53125 -72.441406 41.90625 -73.296875 C 39.28125 -74.148438 36.375 -75.203125 33.1875 -76.453125 C 29.644531 -77.828125 26.960938 -79.9375 25.140625 -82.78125 C 23.316406 -85.632812 22.40625 -88.941406 22.40625 -92.703125 C 22.40625 -96.242188 23.144531 -99.351562 24.625 -102.03125 C 26.113281 -104.707031 28.023438 -106.898438 30.359375 -108.609375 C 32.703125 -110.328125 35.382812 -111.613281 38.40625 -112.46875 C 41.425781 -113.320312 44.472656 -113.75 47.546875 -113.75 C 52.222656 -113.75 56.328125 -112.945312 59.859375 -111.34375 C 63.398438 -109.75 66.367188 -107.640625 68.765625 -105.015625 C 71.160156 -102.398438 73.066406 -99.378906 74.484375 -95.953125 C 75.910156 -92.535156 76.851562 -89.003906 77.3125 -85.359375 C 77.425781 -84.210938 77.941406 -83.640625 78.859375 -83.640625 C 79.648438 -83.640625 80.046875 -84.210938 80.046875 -85.359375 L 80.046875 -115.796875 C 80.046875 -116.941406 79.707031 -117.515625 79.03125 -117.515625 C 78.457031 -117.515625 77.828125 -117.054688 77.140625 -116.140625 Z M 77.140625 -116.140625 "/></g></g></g><g fill="#e66c6c" fill-opacity="1"><g transform="translate(73.548126, 245.249984)"><g><path d="M 4.6875 -2.78125 L 4.6875 0 L 37.359375 0 L 37.359375 -2.78125 L 22.40625 -2.78125 L 22.40625 -108.9375 L 89.65625 1.390625 L 95.5625 1.390625 L 95.5625 -113.984375 L 110.5 -113.984375 L 110.5 -116.765625 L 77.84375 -116.765625 L 77.84375 -113.984375 L 92.78125 -113.984375 L 92.78125 -28.671875 L 38.921875 -116.765625 L 4.6875 -116.765625 L 4.6875 -113.984375 L 19.640625 -113.984375 L 19.640625 -2.78125 Z M 4.6875 -2.78125 "/></g></g></g><g clip-path="url(#a227cdf248)"><path fill="#ff5757" d="M 86.976562 172.328125 L 272.679688 172.328125 L 272.679688 202.378906 L 86.976562 202.378906 Z M 86.976562 172.328125 " fill-opacity="1" fill-rule="nonzero"/></g><g fill="#000000" fill-opacity="1"><g transform="translate(115.83552, 190.874987)"><g><path d="M 5.03125 -9.046875 C 5.53125 -9.046875 5.992188 -8.984375 6.421875 -8.859375 C 6.847656 -8.734375 7.28125 -8.539062 7.71875 -8.28125 L 8.03125 -8.546875 C 8.25 -8.710938 8.425781 -8.828125 8.5625 -8.890625 C 8.695312 -8.953125 8.859375 -8.984375 9.046875 -8.984375 C 9.253906 -8.984375 9.421875 -8.9375 9.546875 -8.84375 C 9.671875 -8.75 9.734375 -8.613281 9.734375 -8.4375 C 9.734375 -8.363281 9.722656 -8.285156 9.703125 -8.203125 L 9.140625 -6.34375 C 9.078125 -6.132812 9 -5.984375 8.90625 -5.890625 C 8.8125 -5.804688 8.664062 -5.765625 8.46875 -5.765625 C 8.269531 -5.765625 8.097656 -5.820312 7.953125 -5.9375 C 7.804688 -6.0625 7.578125 -6.3125 7.265625 -6.6875 C 6.953125 -7.039062 6.664062 -7.289062 6.40625 -7.4375 C 6.15625 -7.59375 5.894531 -7.671875 5.625 -7.671875 C 5.425781 -7.671875 5.257812 -7.601562 5.125 -7.46875 C 4.988281 -7.34375 4.921875 -7.1875 4.921875 -7 C 4.921875 -6.78125 5.023438 -6.578125 5.234375 -6.390625 C 5.453125 -6.210938 5.789062 -5.984375 6.25 -5.703125 C 6.71875 -5.421875 7.101562 -5.164062 7.40625 -4.9375 C 7.71875 -4.71875 7.976562 -4.441406 8.1875 -4.109375 C 8.40625 -3.785156 8.515625 -3.40625 8.515625 -2.96875 C 8.515625 -2.695312 8.46875 -2.421875 8.375 -2.140625 C 8.164062 -1.421875 7.75 -0.875 7.125 -0.5 C 6.507812 -0.132812 5.789062 0.046875 4.96875 0.046875 C 4.34375 0.046875 3.816406 -0.0195312 3.390625 -0.15625 C 2.972656 -0.300781 2.546875 -0.546875 2.109375 -0.890625 L 1.625 -0.484375 C 1.40625 -0.296875 1.222656 -0.164062 1.078125 -0.09375 C 0.929688 -0.03125 0.769531 0 0.59375 0 C 0.382812 0 0.21875 -0.046875 0.09375 -0.140625 C -0.0195312 -0.242188 -0.078125 -0.378906 -0.078125 -0.546875 C -0.078125 -0.640625 -0.0625 -0.734375 -0.03125 -0.828125 L 0.625 -2.84375 C 0.695312 -3.070312 0.796875 -3.234375 0.921875 -3.328125 C 1.046875 -3.429688 1.207031 -3.484375 1.40625 -3.484375 C 1.613281 -3.484375 1.800781 -3.410156 1.96875 -3.265625 C 2.132812 -3.117188 2.351562 -2.859375 2.625 -2.484375 C 2.90625 -2.078125 3.171875 -1.789062 3.421875 -1.625 C 3.671875 -1.46875 3.96875 -1.390625 4.3125 -1.390625 C 4.550781 -1.390625 4.734375 -1.425781 4.859375 -1.5 C 4.992188 -1.570312 5.085938 -1.695312 5.140625 -1.875 C 5.160156 -1.914062 5.171875 -1.984375 5.171875 -2.078125 C 5.171875 -2.285156 5.066406 -2.476562 4.859375 -2.65625 C 4.648438 -2.84375 4.332031 -3.0625 3.90625 -3.3125 C 3.445312 -3.582031 3.070312 -3.828125 2.78125 -4.046875 C 2.5 -4.273438 2.25 -4.550781 2.03125 -4.875 C 1.820312 -5.207031 1.71875 -5.597656 1.71875 -6.046875 C 1.71875 -6.367188 1.769531 -6.679688 1.875 -6.984375 C 2.0625 -7.597656 2.445312 -8.09375 3.03125 -8.46875 C 3.613281 -8.851562 4.28125 -9.046875 5.03125 -9.046875 Z M 5.03125 -9.046875 "/></g></g></g><g fill="#000000" fill-opacity="1"><g transform="translate(129.749586, 190.874987)"><g><path d="M 8.78125 -8.953125 C 9.113281 -8.953125 9.367188 -8.878906 9.546875 -8.734375 C 9.734375 -8.597656 9.828125 -8.40625 9.828125 -8.15625 C 9.828125 -8.03125 9.8125 -7.910156 9.78125 -7.796875 L 9.4375 -6.53125 C 9.375 -6.289062 9.28125 -6.125 9.15625 -6.03125 C 9.03125 -5.9375 8.859375 -5.890625 8.640625 -5.890625 C 8.421875 -5.890625 8.25 -5.9375 8.125 -6.03125 C 8.007812 -6.125 7.921875 -6.28125 7.859375 -6.5 L 7.640625 -7.265625 C 7.597656 -7.421875 7.546875 -7.523438 7.484375 -7.578125 C 7.421875 -7.640625 7.296875 -7.671875 7.109375 -7.671875 L 5.703125 -7.671875 L 5.03125 -5.28125 L 5.625 -5.28125 C 5.6875 -5.28125 5.769531 -5.320312 5.875 -5.40625 L 6.34375 -5.8125 C 6.46875 -5.925781 6.578125 -6.007812 6.671875 -6.0625 C 6.773438 -6.113281 6.898438 -6.140625 7.046875 -6.140625 C 7.210938 -6.140625 7.34375 -6.097656 7.4375 -6.015625 C 7.539062 -5.929688 7.59375 -5.820312 7.59375 -5.6875 C 7.59375 -5.65625 7.585938 -5.601562 7.578125 -5.53125 L 7.015625 -3.65625 C 6.960938 -3.457031 6.867188 -3.3125 6.734375 -3.21875 C 6.609375 -3.125 6.472656 -3.078125 6.328125 -3.078125 C 6.078125 -3.078125 5.890625 -3.207031 5.765625 -3.46875 L 5.53125 -3.9375 C 5.46875 -4.070312 5.367188 -4.140625 5.234375 -4.140625 L 4.703125 -4.140625 L 3.921875 -1.296875 L 5.09375 -1.296875 C 5.269531 -1.296875 5.421875 -1.328125 5.546875 -1.390625 C 5.679688 -1.460938 5.820312 -1.582031 5.96875 -1.75 L 6.78125 -2.640625 C 6.925781 -2.785156 7.0625 -2.890625 7.1875 -2.953125 C 7.320312 -3.023438 7.484375 -3.0625 7.671875 -3.0625 C 7.867188 -3.0625 8.03125 -3.015625 8.15625 -2.921875 C 8.28125 -2.835938 8.34375 -2.707031 8.34375 -2.53125 C 8.34375 -2.457031 8.328125 -2.375 8.296875 -2.28125 L 7.90625 -0.921875 C 7.8125 -0.578125 7.671875 -0.335938 7.484375 -0.203125 C 7.296875 -0.0664062 7.019531 0 6.65625 0 L 0.234375 0 C 0.046875 0 -0.09375 -0.03125 -0.1875 -0.09375 C -0.289062 -0.15625 -0.34375 -0.238281 -0.34375 -0.34375 C -0.34375 -0.40625 -0.332031 -0.46875 -0.3125 -0.53125 C -0.269531 -0.625 -0.207031 -0.695312 -0.125 -0.75 C -0.0507812 -0.800781 -0.00390625 -0.832031 0.015625 -0.84375 C 0.160156 -0.9375 0.273438 -1.03125 0.359375 -1.125 C 0.453125 -1.21875 0.53125 -1.375 0.59375 -1.59375 L 2.25 -7.390625 C 2.28125 -7.503906 2.296875 -7.609375 2.296875 -7.703125 C 2.296875 -7.816406 2.28125 -7.90625 2.25 -7.96875 C 2.21875 -8.039062 2.171875 -8.117188 2.109375 -8.203125 C 2.023438 -8.316406 1.984375 -8.410156 1.984375 -8.484375 C 1.984375 -8.515625 1.992188 -8.566406 2.015625 -8.640625 C 2.054688 -8.753906 2.140625 -8.832031 2.265625 -8.875 C 2.390625 -8.925781 2.570312 -8.953125 2.8125 -8.953125 Z M 8.78125 -8.953125 "/></g></g></g><g fill="#000000" fill-opacity="1"><g transform="translate(143.421702, 190.874987)"><g><path d="M 7.703125 -3.46875 C 7.953125 -3.46875 8.140625 -3.414062 8.265625 -3.3125 C 8.398438 -3.207031 8.46875 -3.0625 8.46875 -2.875 C 8.46875 -2.800781 8.457031 -2.710938 8.4375 -2.609375 L 7.984375 -1.03125 C 7.867188 -0.644531 7.707031 -0.375 7.5 -0.21875 C 7.289062 -0.0703125 6.976562 0 6.5625 0 L 0.234375 0 C 0.046875 0 -0.09375 -0.03125 -0.1875 -0.09375 C -0.289062 -0.15625 -0.34375 -0.238281 -0.34375 -0.34375 C -0.34375 -0.40625 -0.332031 -0.46875 -0.3125 -0.53125 C -0.28125 -0.59375 -0.234375 -0.648438 -0.171875 -0.703125 C -0.109375 -0.753906 -0.0390625 -0.800781 0.03125 -0.84375 C 0.164062 -0.9375 0.28125 -1.03125 0.375 -1.125 C 0.46875 -1.21875 0.546875 -1.375 0.609375 -1.59375 L 2.25 -7.390625 C 2.28125 -7.503906 2.296875 -7.613281 2.296875 -7.71875 C 2.296875 -7.820312 2.28125 -7.90625 2.25 -7.96875 C 2.21875 -8.039062 2.175781 -8.117188 2.125 -8.203125 C 2.039062 -8.316406 2 -8.410156 2 -8.484375 C 2 -8.515625 2.007812 -8.566406 2.03125 -8.640625 C 2.0625 -8.753906 2.140625 -8.832031 2.265625 -8.875 C 2.390625 -8.925781 2.578125 -8.953125 2.828125 -8.953125 L 5.984375 -8.953125 C 6.171875 -8.953125 6.316406 -8.921875 6.421875 -8.859375 C 6.523438 -8.804688 6.578125 -8.726562 6.578125 -8.625 C 6.578125 -8.582031 6.5625 -8.523438 6.53125 -8.453125 C 6.507812 -8.390625 6.472656 -8.332031 6.421875 -8.28125 C 6.367188 -8.226562 6.320312 -8.191406 6.28125 -8.171875 C 6.25 -8.148438 6.222656 -8.128906 6.203125 -8.109375 C 6.054688 -8.023438 5.9375 -7.929688 5.84375 -7.828125 C 5.757812 -7.734375 5.6875 -7.585938 5.625 -7.390625 L 3.890625 -1.296875 L 4.71875 -1.296875 C 4.925781 -1.296875 5.101562 -1.328125 5.25 -1.390625 C 5.394531 -1.460938 5.550781 -1.597656 5.71875 -1.796875 L 6.640625 -2.90625 C 6.816406 -3.101562 6.984375 -3.242188 7.140625 -3.328125 C 7.296875 -3.421875 7.484375 -3.46875 7.703125 -3.46875 Z M 7.703125 -3.46875 "/></g></g></g><g fill="#000000" fill-opacity="1"><g transform="translate(156.824995, 190.874987)"><g><path d="M 6.546875 -9.15625 C 7.679688 -9.15625 8.566406 -8.890625 9.203125 -8.359375 C 9.835938 -7.828125 10.15625 -7.054688 10.15625 -6.046875 C 10.15625 -5.578125 10.082031 -5.066406 9.9375 -4.515625 C 9.664062 -3.515625 9.25 -2.664062 8.6875 -1.96875 C 8.125 -1.269531 7.453125 -0.738281 6.671875 -0.375 C 5.890625 -0.0195312 5.039062 0.15625 4.125 0.15625 C 3.007812 0.15625 2.128906 -0.109375 1.484375 -0.640625 C 0.847656 -1.171875 0.53125 -1.941406 0.53125 -2.953125 C 0.53125 -3.398438 0.609375 -3.921875 0.765625 -4.515625 C 1.023438 -5.515625 1.4375 -6.359375 2 -7.046875 C 2.5625 -7.742188 3.226562 -8.269531 4 -8.625 C 4.78125 -8.976562 5.628906 -9.15625 6.546875 -9.15625 Z M 6.3125 -7.84375 C 6.039062 -7.84375 5.796875 -7.734375 5.578125 -7.515625 C 5.367188 -7.304688 5.15625 -6.957031 4.9375 -6.46875 C 4.726562 -5.976562 4.503906 -5.296875 4.265625 -4.421875 C 3.898438 -3.171875 3.71875 -2.304688 3.71875 -1.828125 C 3.71875 -1.546875 3.765625 -1.34375 3.859375 -1.21875 C 3.960938 -1.09375 4.125 -1.03125 4.34375 -1.03125 C 4.613281 -1.03125 4.851562 -1.140625 5.0625 -1.359375 C 5.28125 -1.578125 5.492188 -1.925781 5.703125 -2.40625 C 5.910156 -2.894531 6.140625 -3.566406 6.390625 -4.421875 C 6.742188 -5.660156 6.921875 -6.53125 6.921875 -7.03125 C 6.921875 -7.320312 6.867188 -7.53125 6.765625 -7.65625 C 6.671875 -7.78125 6.519531 -7.84375 6.3125 -7.84375 Z M 6.3125 -7.84375 "/></g></g></g><g fill="#000000" fill-opacity="1"><g transform="translate(171.330481, 190.874987)"><g><path d="M 10.78125 -8.953125 C 11.269531 -8.953125 11.515625 -8.753906 11.515625 -8.359375 C 11.515625 -8.234375 11.488281 -8.078125 11.4375 -7.890625 L 11.109375 -6.796875 C 11.015625 -6.460938 10.894531 -6.226562 10.75 -6.09375 C 10.601562 -5.957031 10.394531 -5.890625 10.125 -5.890625 C 9.90625 -5.890625 9.734375 -5.945312 9.609375 -6.0625 C 9.492188 -6.1875 9.378906 -6.375 9.265625 -6.625 L 9.046875 -7.171875 C 8.972656 -7.335938 8.894531 -7.453125 8.8125 -7.515625 C 8.726562 -7.578125 8.601562 -7.609375 8.4375 -7.609375 L 8.125 -7.609375 L 6.421875 -1.59375 C 6.390625 -1.476562 6.375 -1.378906 6.375 -1.296875 C 6.375 -1.179688 6.390625 -1.085938 6.421875 -1.015625 C 6.453125 -0.953125 6.5 -0.878906 6.5625 -0.796875 C 6.644531 -0.671875 6.6875 -0.566406 6.6875 -0.484375 C 6.6875 -0.460938 6.675781 -0.414062 6.65625 -0.34375 C 6.613281 -0.226562 6.523438 -0.144531 6.390625 -0.09375 C 6.265625 -0.0390625 6.082031 -0.015625 5.84375 -0.015625 L 2.671875 -0.015625 C 2.484375 -0.015625 2.335938 -0.046875 2.234375 -0.109375 C 2.128906 -0.171875 2.078125 -0.257812 2.078125 -0.375 C 2.078125 -0.425781 2.09375 -0.476562 2.125 -0.53125 C 2.15625 -0.613281 2.195312 -0.675781 2.25 -0.71875 C 2.300781 -0.757812 2.375 -0.8125 2.46875 -0.875 C 2.601562 -0.957031 2.71875 -1.046875 2.8125 -1.140625 C 2.90625 -1.242188 2.984375 -1.394531 3.046875 -1.59375 L 4.734375 -7.609375 L 4.421875 -7.609375 C 4.222656 -7.609375 4.0625 -7.578125 3.9375 -7.515625 C 3.8125 -7.453125 3.675781 -7.335938 3.53125 -7.171875 L 3.09375 -6.625 C 2.882812 -6.375 2.679688 -6.1875 2.484375 -6.0625 C 2.296875 -5.945312 2.09375 -5.890625 1.875 -5.890625 C 1.664062 -5.890625 1.5 -5.941406 1.375 -6.046875 C 1.257812 -6.160156 1.203125 -6.3125 1.203125 -6.5 C 1.203125 -6.582031 1.21875 -6.679688 1.25 -6.796875 L 1.59375 -8.015625 C 1.664062 -8.265625 1.75 -8.453125 1.84375 -8.578125 C 1.9375 -8.710938 2.0625 -8.804688 2.21875 -8.859375 C 2.382812 -8.921875 2.625 -8.953125 2.9375 -8.953125 Z M 10.78125 -8.953125 "/></g></g></g><g fill="#000000" fill-opacity="1"><g transform="translate(186.185449, 190.874987)"><g><path d="M 5.96875 -8.953125 C 6.15625 -8.953125 6.300781 -8.921875 6.40625 -8.859375 C 6.507812 -8.804688 6.5625 -8.726562 6.5625 -8.625 C 6.5625 -8.582031 6.550781 -8.523438 6.53125 -8.453125 C 6.5 -8.390625 6.457031 -8.332031 6.40625 -8.28125 C 6.363281 -8.226562 6.320312 -8.191406 6.28125 -8.171875 C 6.238281 -8.148438 6.207031 -8.128906 6.1875 -8.109375 C 6.039062 -8.023438 5.921875 -7.929688 5.828125 -7.828125 C 5.742188 -7.734375 5.671875 -7.585938 5.609375 -7.390625 L 3.984375 -1.59375 C 3.941406 -1.46875 3.921875 -1.351562 3.921875 -1.25 C 3.921875 -1.144531 3.9375 -1.054688 3.96875 -0.984375 C 4 -0.910156 4.046875 -0.832031 4.109375 -0.75 C 4.191406 -0.632812 4.234375 -0.539062 4.234375 -0.46875 C 4.234375 -0.445312 4.222656 -0.40625 4.203125 -0.34375 C 4.171875 -0.207031 4.09375 -0.113281 3.96875 -0.0625 C 3.84375 -0.0195312 3.65625 0 3.40625 0 L 0.234375 0 C 0.046875 0 -0.09375 -0.03125 -0.1875 -0.09375 C -0.289062 -0.15625 -0.34375 -0.238281 -0.34375 -0.34375 C -0.34375 -0.40625 -0.332031 -0.46875 -0.3125 -0.53125 C -0.269531 -0.625 -0.207031 -0.695312 -0.125 -0.75 C -0.0507812 -0.800781 -0.00390625 -0.832031 0.015625 -0.84375 C 0.160156 -0.9375 0.273438 -1.03125 0.359375 -1.125 C 0.453125 -1.21875 0.53125 -1.375 0.59375 -1.59375 L 2.234375 -7.390625 C 2.265625 -7.503906 2.28125 -7.613281 2.28125 -7.71875 C 2.28125 -7.820312 2.265625 -7.90625 2.234375 -7.96875 C 2.203125 -8.039062 2.160156 -8.117188 2.109375 -8.203125 C 2.023438 -8.316406 1.984375 -8.410156 1.984375 -8.484375 C 1.984375 -8.515625 1.992188 -8.566406 2.015625 -8.640625 C 2.054688 -8.753906 2.132812 -8.832031 2.25 -8.875 C 2.375 -8.925781 2.5625 -8.953125 2.8125 -8.953125 Z M 5.96875 -8.953125 "/></g></g></g><g fill="#000000" fill-opacity="1"><g transform="translate(196.268711, 190.874987)"><g><path d="M 6.546875 -9.15625 C 7.679688 -9.15625 8.566406 -8.890625 9.203125 -8.359375 C 9.835938 -7.828125 10.15625 -7.054688 10.15625 -6.046875 C 10.15625 -5.578125 10.082031 -5.066406 9.9375 -4.515625 C 9.664062 -3.515625 9.25 -2.664062 8.6875 -1.96875 C 8.125 -1.269531 7.453125 -0.738281 6.671875 -0.375 C 5.890625 -0.0195312 5.039062 0.15625 4.125 0.15625 C 3.007812 0.15625 2.128906 -0.109375 1.484375 -0.640625 C 0.847656 -1.171875 0.53125 -1.941406 0.53125 -2.953125 C 0.53125 -3.398438 0.609375 -3.921875 0.765625 -4.515625 C 1.023438 -5.515625 1.4375 -6.359375 2 -7.046875 C 2.5625 -7.742188 3.226562 -8.269531 4 -8.625 C 4.78125 -8.976562 5.628906 -9.15625 6.546875 -9.15625 Z M 6.3125 -7.84375 C 6.039062 -7.84375 5.796875 -7.734375 5.578125 -7.515625 C 5.367188 -7.304688 5.15625 -6.957031 4.9375 -6.46875 C 4.726562 -5.976562 4.503906 -5.296875 4.265625 -4.421875 C 3.898438 -3.171875 3.71875 -2.304688 3.71875 -1.828125 C 3.71875 -1.546875 3.765625 -1.34375 3.859375 -1.21875 C 3.960938 -1.09375 4.125 -1.03125 4.34375 -1.03125 C 4.613281 -1.03125 4.851562 -1.140625 5.0625 -1.359375 C 5.28125 -1.578125 5.492188 -1.925781 5.703125 -2.40625 C 5.910156 -2.894531 6.140625 -3.566406 6.390625 -4.421875 C 6.742188 -5.660156 6.921875 -6.53125 6.921875 -7.03125 C 6.921875 -7.320312 6.867188 -7.53125 6.765625 -7.65625 C 6.671875 -7.78125 6.519531 -7.84375 6.3125 -7.84375 Z M 6.3125 -7.84375 "/></g></g></g><g fill="#000000" fill-opacity="1"><g transform="translate(210.774199, 190.874987)"><g><path d="M 10.484375 -8.953125 C 10.847656 -8.953125 11.03125 -8.835938 11.03125 -8.609375 C 11.03125 -8.546875 11.023438 -8.5 11.015625 -8.46875 C 10.992188 -8.382812 10.953125 -8.316406 10.890625 -8.265625 C 10.835938 -8.210938 10.765625 -8.15625 10.671875 -8.09375 C 10.535156 -8.019531 10.421875 -7.929688 10.328125 -7.828125 C 10.242188 -7.734375 10.171875 -7.582031 10.109375 -7.375 L 8.4375 -1.40625 C 8.28125 -0.863281 8.085938 -0.484375 7.859375 -0.265625 C 7.628906 -0.0546875 7.316406 0.046875 6.921875 0.046875 C 6.554688 0.046875 6.253906 -0.0546875 6.015625 -0.265625 C 5.773438 -0.472656 5.554688 -0.796875 5.359375 -1.234375 L 3.328125 -5.515625 L 2.1875 -1.59375 C 2.164062 -1.46875 2.15625 -1.363281 2.15625 -1.28125 C 2.15625 -1.164062 2.175781 -1.066406 2.21875 -0.984375 C 2.257812 -0.910156 2.3125 -0.832031 2.375 -0.75 C 2.476562 -0.632812 2.53125 -0.535156 2.53125 -0.453125 C 2.53125 -0.398438 2.523438 -0.363281 2.515625 -0.34375 C 2.484375 -0.207031 2.398438 -0.113281 2.265625 -0.0625 C 2.140625 -0.0195312 1.953125 0 1.703125 0 L 0.234375 0 C -0.128906 0 -0.3125 -0.113281 -0.3125 -0.34375 C -0.3125 -0.40625 -0.304688 -0.453125 -0.296875 -0.484375 C -0.265625 -0.578125 -0.222656 -0.644531 -0.171875 -0.6875 C -0.117188 -0.738281 -0.046875 -0.796875 0.046875 -0.859375 C 0.179688 -0.941406 0.296875 -1.03125 0.390625 -1.125 C 0.484375 -1.226562 0.5625 -1.382812 0.625 -1.59375 L 2.328125 -7.625 L 2.109375 -8.078125 C 2.023438 -8.253906 1.984375 -8.410156 1.984375 -8.546875 C 1.984375 -8.816406 2.160156 -8.953125 2.515625 -8.953125 L 4.5 -8.953125 C 4.789062 -8.953125 5.007812 -8.882812 5.15625 -8.75 C 5.300781 -8.625 5.460938 -8.398438 5.640625 -8.078125 L 7.59375 -4.125 L 8.53125 -7.375 C 8.550781 -7.5 8.5625 -7.601562 8.5625 -7.6875 C 8.5625 -7.800781 8.539062 -7.894531 8.5 -7.96875 C 8.46875 -8.039062 8.414062 -8.117188 8.34375 -8.203125 C 8.238281 -8.316406 8.1875 -8.414062 8.1875 -8.5 C 8.1875 -8.550781 8.191406 -8.59375 8.203125 -8.625 C 8.242188 -8.75 8.328125 -8.832031 8.453125 -8.875 C 8.578125 -8.925781 8.765625 -8.953125 9.015625 -8.953125 Z M 10.484375 -8.953125 "/></g></g></g><g fill="#000000" fill-opacity="1"><g transform="translate(225.199041, 190.874987)"><g><path d="M 5.03125 -9.046875 C 5.53125 -9.046875 5.992188 -8.984375 6.421875 -8.859375 C 6.847656 -8.734375 7.28125 -8.539062 7.71875 -8.28125 L 8.03125 -8.546875 C 8.25 -8.710938 8.425781 -8.828125 8.5625 -8.890625 C 8.695312 -8.953125 8.859375 -8.984375 9.046875 -8.984375 C 9.253906 -8.984375 9.421875 -8.9375 9.546875 -8.84375 C 9.671875 -8.75 9.734375 -8.613281 9.734375 -8.4375 C 9.734375 -8.363281 9.722656 -8.285156 9.703125 -8.203125 L 9.140625 -6.34375 C 9.078125 -6.132812 9 -5.984375 8.90625 -5.890625 C 8.8125 -5.804688 8.664062 -5.765625 8.46875 -5.765625 C 8.269531 -5.765625 8.097656 -5.820312 7.953125 -5.9375 C 7.804688 -6.0625 7.578125 -6.3125 7.265625 -6.6875 C 6.953125 -7.039062 6.664062 -7.289062 6.40625 -7.4375 C 6.15625 -7.59375 5.894531 -7.671875 5.625 -7.671875 C 5.425781 -7.671875 5.257812 -7.601562 5.125 -7.46875 C 4.988281 -7.34375 4.921875 -7.1875 4.921875 -7 C 4.921875 -6.78125 5.023438 -6.578125 5.234375 -6.390625 C 5.453125 -6.210938 5.789062 -5.984375 6.25 -5.703125 C 6.71875 -5.421875 7.101562 -5.164062 7.40625 -4.9375 C 7.71875 -4.71875 7.976562 -4.441406 8.1875 -4.109375 C 8.40625 -3.785156 8.515625 -3.40625 8.515625 -2.96875 C 8.515625 -2.695312 8.46875 -2.421875 8.375 -2.140625 C 8.164062 -1.421875 7.75 -0.875 7.125 -0.5 C 6.507812 -0.132812 5.789062 0.046875 4.96875 0.046875 C 4.34375 0.046875 3.816406 -0.0195312 3.390625 -0.15625 C 2.972656 -0.300781 2.546875 -0.546875 2.109375 -0.890625 L 1.625 -0.484375 C 1.40625 -0.296875 1.222656 -0.164062 1.078125 -0.09375 C 0.929688 -0.03125 0.769531 0 0.59375 0 C 0.382812 0 0.21875 -0.046875 0.09375 -0.140625 C -0.0195312 -0.242188 -0.078125 -0.378906 -0.078125 -0.546875 C -0.078125 -0.640625 -0.0625 -0.734375 -0.03125 -0.828125 L 0.625 -2.84375 C 0.695312 -3.070312 0.796875 -3.234375 0.921875 -3.328125 C 1.046875 -3.429688 1.207031 -3.484375 1.40625 -3.484375 C 1.613281 -3.484375 1.800781 -3.410156 1.96875 -3.265625 C 2.132812 -3.117188 2.351562 -2.859375 2.625 -2.484375 C 2.90625 -2.078125 3.171875 -1.789062 3.421875 -1.625 C 3.671875 -1.46875 3.96875 -1.390625 4.3125 -1.390625 C 4.550781 -1.390625 4.734375 -1.425781 4.859375 -1.5 C 4.992188 -1.570312 5.085938 -1.695312 5.140625 -1.875 C 5.160156 -1.914062 5.171875 -1.984375 5.171875 -2.078125 C 5.171875 -2.285156 5.066406 -2.476562 4.859375 -2.65625 C 4.648438 -2.84375 4.332031 -3.0625 3.90625 -3.3125 C 3.445312 -3.582031 3.070312 -3.828125 2.78125 -4.046875 C 2.5 -4.273438 2.25 -4.550781 2.03125 -4.875 C 1.820312 -5.207031 1.71875 -5.597656 1.71875 -6.046875 C 1.71875 -6.367188 1.769531 -6.679688 1.875 -6.984375 C 2.0625 -7.597656 2.445312 -8.09375 3.03125 -8.46875 C 3.613281 -8.851562 4.28125 -9.046875 5.03125 -9.046875 Z M 5.03125 -9.046875 "/></g></g></g><g fill="#000000" fill-opacity="1"><g transform="translate(239.116762, 190.874987)"><g/></g></g></svg>